<?xml version="1.0" encoding="UTF-8" standalone="no"?>
<!-- Created with Inkscape (http://www.inkscape.org/) -->

<svg
   width="123.97765mm"
   height="123.97765mm"
   viewBox="0 0 123.97765 123.97765"
   version="1.1"
   id="svg5"
   inkscape:version="1.1.2 (0a00cf5339, 2022-02-04)"
   sodipodi:docname="plankton.svg"
   xmlns:inkscape="http://www.inkscape.org/namespaces/inkscape"
   xmlns:sodipodi="http://sodipodi.sourceforge.net/DTD/sodipodi-0.dtd"
   xmlns="http://www.w3.org/2000/svg"
   xmlns:svg="http://www.w3.org/2000/svg">
  <sodipodi:namedview
     id="namedview7"
     pagecolor="#ffffff"
     bordercolor="#666666"
     borderopacity="1.0"
     inkscape:pageshadow="2"
     inkscape:pageopacity="0.0"
     inkscape:pagecheckerboard="0"
     inkscape:document-units="mm"
     showgrid="false"
     inkscape:snap-grids="true"
     inkscape:snap-to-guides="false"
     inkscape:snap-page="false"
     inkscape:zoom="1.6029515"
     inkscape:cx="185.28321"
     inkscape:cy="234.25537"
     inkscape:window-width="1846"
     inkscape:window-height="1016"
     inkscape:window-x="74"
     inkscape:window-y="27"
     inkscape:window-maximized="1"
     inkscape:current-layer="layer5" />
  <defs
     id="defs2">
    <inkscape:path-effect
       effect="bspline"
       id="path-effect5178"
       is_visible="true"
       lpeversion="1"
       weight="33.333333"
       steps="2"
       helper_size="0"
       apply_no_weight="true"
       apply_with_weight="true"
       only_selected="false" />
    <inkscape:path-effect
       effect="bspline"
       id="path-effect3782"
       is_visible="true"
       lpeversion="1"
       weight="33.333333"
       steps="2"
       helper_size="0"
       apply_no_weight="true"
       apply_with_weight="true"
       only_selected="false" />
    <inkscape:path-effect
       effect="bspline"
       id="path-effect2521"
       is_visible="true"
       lpeversion="1"
       weight="33.333333"
       steps="2"
       helper_size="0"
       apply_no_weight="true"
       apply_with_weight="true"
       only_selected="false" />
    <inkscape:path-effect
       effect="bspline"
       id="path-effect3782-5"
       is_visible="true"
       lpeversion="1"
       weight="33.333333"
       steps="2"
       helper_size="0"
       apply_no_weight="true"
       apply_with_weight="true"
       only_selected="false" />
    <inkscape:path-effect
       effect="bspline"
       id="path-effect5178-2"
       is_visible="true"
       lpeversion="1"
       weight="33.333333"
       steps="2"
       helper_size="0"
       apply_no_weight="true"
       apply_with_weight="true"
       only_selected="false" />
    <inkscape:path-effect
       effect="bspline"
       id="path-effect5178-1"
       is_visible="true"
       lpeversion="1"
       weight="33.333333"
       steps="2"
       helper_size="0"
       apply_no_weight="true"
       apply_with_weight="true"
       only_selected="false" />
    <inkscape:path-effect
       effect="bspline"
       id="path-effect5178-1-7"
       is_visible="true"
       lpeversion="1"
       weight="33.333333"
       steps="2"
       helper_size="0"
       apply_no_weight="true"
       apply_with_weight="true"
       only_selected="false" />
    <inkscape:path-effect
       effect="bspline"
       id="path-effect5178-1-7-9"
       is_visible="true"
       lpeversion="1"
       weight="33.333333"
       steps="2"
       helper_size="0"
       apply_no_weight="true"
       apply_with_weight="true"
       only_selected="false" />
    <inkscape:path-effect
       effect="bspline"
       id="path-effect5178-1-6"
       is_visible="true"
       lpeversion="1"
       weight="33.333333"
       steps="2"
       helper_size="0"
       apply_no_weight="true"
       apply_with_weight="true"
       only_selected="false" />
    <inkscape:path-effect
       effect="bspline"
       id="path-effect5178-0"
       is_visible="true"
       lpeversion="1"
       weight="33.333333"
       steps="2"
       helper_size="0"
       apply_no_weight="true"
       apply_with_weight="true"
       only_selected="false" />
    <inkscape:path-effect
       effect="bspline"
       id="path-effect5178-1-7-6"
       is_visible="true"
       lpeversion="1"
       weight="33.333333"
       steps="2"
       helper_size="0"
       apply_no_weight="true"
       apply_with_weight="true"
       only_selected="false" />
    <inkscape:path-effect
       effect="bspline"
       id="path-effect5178-1-7-9-2"
       is_visible="true"
       lpeversion="1"
       weight="33.333333"
       steps="2"
       helper_size="0"
       apply_no_weight="true"
       apply_with_weight="true"
       only_selected="false" />
  </defs>
  <g
     inkscape:groupmode="layer"
     id="layer5"
     inkscape:label="blubs"
     style="display:inline">
    <circle
       style="font-variation-settings:normal;opacity:1;fill:#00a8a8;fill-opacity:1;stroke:none;stroke-width:1.165;stroke-linecap:butt;stroke-linejoin:miter;stroke-miterlimit:4;stroke-dasharray:none;stroke-dashoffset:0;stroke-opacity:1;paint-order:normal;stop-color:#000000;stop-opacity:1"
       id="path12081"
       cx="20.484758"
       cy="38.650417"
       r="4.311523" />
    <circle
       style="font-variation-settings:normal;fill:#00a8a8;fill-opacity:1;stroke:none;stroke-width:1.165;stroke-linecap:butt;stroke-linejoin:miter;stroke-miterlimit:4;stroke-dasharray:none;stroke-dashoffset:0;stroke-opacity:1;paint-order:normal;stop-color:#000000"
       id="path12081-9"
       cx="27.332384"
       cy="56.049297"
       r="4.311523" />
    <circle
       style="font-variation-settings:normal;fill:#00a8a8;fill-opacity:1;stroke:none;stroke-width:1.165;stroke-linecap:butt;stroke-linejoin:miter;stroke-miterlimit:4;stroke-dasharray:none;stroke-dashoffset:0;stroke-opacity:1;paint-order:normal;stop-color:#000000"
       id="path12081-9-2"
       cx="25.442801"
       cy="78.417755"
       r="4.311523" />
    <circle
       style="font-variation-settings:normal;fill:#00a8a8;fill-opacity:1;stroke:none;stroke-width:1.165;stroke-linecap:butt;stroke-linejoin:miter;stroke-miterlimit:4;stroke-dasharray:none;stroke-dashoffset:0;stroke-opacity:1;paint-order:normal;stop-color:#000000"
       id="path12081-9-2-0"
       cx="99.125656"
       cy="54.051727"
       r="4.311523" />
    <circle
       style="font-variation-settings:normal;fill:#00a8a8;fill-opacity:1;stroke:none;stroke-width:1.165;stroke-linecap:butt;stroke-linejoin:miter;stroke-miterlimit:4;stroke-dasharray:none;stroke-dashoffset:0;stroke-opacity:1;paint-order:normal;stop-color:#000000"
       id="path12081-9-2-0-2"
       cx="109.03699"
       cy="82.237946"
       r="4.311523" />
    <circle
       style="font-variation-settings:normal;fill:#800080;fill-opacity:1;stroke:none;stroke-width:0.900799;stroke-linecap:butt;stroke-linejoin:miter;stroke-miterlimit:4;stroke-dasharray:none;stroke-dashoffset:0;stroke-opacity:1;paint-order:normal;stop-color:#000000"
       id="path12081-9-2-0-2-3"
       cx="91.007515"
       cy="42.940964"
       r="3.3337464" />
    <circle
       style="font-variation-settings:normal;fill:#800080;fill-opacity:1;stroke:none;stroke-width:0.900799;stroke-linecap:butt;stroke-linejoin:miter;stroke-miterlimit:4;stroke-dasharray:none;stroke-dashoffset:0;stroke-opacity:1;paint-order:normal;stop-color:#000000"
       id="path12081-9-2-0-2-3-7"
       cx="96.313805"
       cy="75.140488"
       r="3.3337464" />
    <circle
       style="font-variation-settings:normal;fill:#800080;fill-opacity:1;stroke:none;stroke-width:0.900799;stroke-linecap:butt;stroke-linejoin:miter;stroke-miterlimit:4;stroke-dasharray:none;stroke-dashoffset:0;stroke-opacity:1;paint-order:normal;stop-color:#000000"
       id="path12081-9-2-0-2-3-7-5"
       cx="93.630302"
       cy="97.155197"
       r="3.3337464" />
    <circle
       style="font-variation-settings:normal;fill:#800080;fill-opacity:1;stroke:none;stroke-width:0.900799;stroke-linecap:butt;stroke-linejoin:miter;stroke-miterlimit:4;stroke-dasharray:none;stroke-dashoffset:0;stroke-opacity:1;paint-order:normal;stop-color:#000000"
       id="path12081-9-2-0-2-3-7-5-2"
       cx="34.624817"
       cy="97.357384"
       r="3.3337464" />
    <circle
       style="font-variation-settings:normal;fill:#800080;fill-opacity:1;stroke:none;stroke-width:0.900799;stroke-linecap:butt;stroke-linejoin:miter;stroke-miterlimit:4;stroke-dasharray:none;stroke-dashoffset:0;stroke-opacity:1;paint-order:normal;stop-color:#000000"
       id="path12081-9-2-0-2-3-7-5-2-2"
       cx="10.506373"
       cy="79.485863"
       r="3.3337464" />
    <circle
       style="font-variation-settings:normal;fill:#800080;fill-opacity:1;stroke:none;stroke-width:0.900799;stroke-linecap:butt;stroke-linejoin:miter;stroke-miterlimit:4;stroke-dasharray:none;stroke-dashoffset:0;stroke-opacity:1;paint-order:normal;stop-color:#000000"
       id="path12081-9-2-0-2-3-7-5-2-2-8"
       cx="18.997774"
       cy="61.250702"
       r="3.3337464" />
  </g>
  <g
     inkscape:groupmode="layer"
     id="layer4"
     inkscape:label="antennae"
     style="display:inline;opacity:1">
    <path
       style="fill:#808080;stroke:none;stroke-width:0.264583px;stroke-linecap:butt;stroke-linejoin:miter;stroke-opacity:1"
       d="M 44.023188,33.447011 C 42.647,31.816551 41.271167,30.18651 39.645004,28.768314 38.018842,27.350117 36.142946,26.14453 33.662519,25.193613 c -2.480427,-0.950917 -5.565643,-1.647126 -8.121925,-1.695681 -2.556282,-0.04856 -4.583226,0.550682 -6.610122,1.149906 1.106202,-1.029712 2.212391,-2.059412 3.905131,-2.780707 1.692739,-0.721296 3.971704,-1.134109 6.499207,-1.134181 2.527504,-7.2e-5 5.303358,0.412515 7.607947,1.344051 2.30459,0.931535 4.137736,2.381757 5.054182,3.106767 0.916446,0.725011 4.43033,4.223046 4.43033,4.223046 0,0 -2.404081,4.040197 -2.404081,4.040197 z"
       id="path5176"
       sodipodi:nodetypes="ccccccccccc"
       inkscape:original-d="m 44.023188,33.447011 c 0,0 -2.751997,-3.260521 -4.128563,-4.89138 -1.875826,-1.205447 -3.751722,-2.411034 -5.627809,-3.616838 -3.084768,-0.695902 -6.169984,-1.392111 -9.255656,-2.088627 -2.026755,0.599525 -6.080688,1.797672 -6.080688,1.797672 0,0 2.212646,-2.059138 3.318605,-3.089135 2.27932,-0.412565 4.558285,-0.825379 6.83703,-1.238465 2.776174,0.41286 5.552028,0.825448 8.327729,1.237787 1.833484,1.450545 3.66663,2.900767 5.499549,4.350754 l 3.513884,3.498035 z"
       inkscape:path-effect="#path-effect5178" />
    <path
       style="fill:#808080;stroke:none;stroke-width:0.193245px;stroke-linecap:butt;stroke-linejoin:miter;stroke-opacity:1"
       d="m 41.841337,72.797197 c -1.307366,-0.840073 -2.614394,-1.67993 -4.058415,-2.322316 -1.44402,-0.642387 -3.024452,-1.086897 -4.986656,-1.231533 -1.962205,-0.144635 -4.306356,0.01068 -6.143861,0.50334 -1.837504,0.492658 -3.168054,1.322674 -4.498568,2.152668 0.586803,-0.93709 1.173605,-1.874178 2.240972,-2.719497 1.067367,-0.845319 2.615088,-1.598763 4.422373,-2.119001 1.807285,-0.520237 3.873984,-0.807286 5.706612,-0.639814 1.832628,0.167472 3.431002,0.789323 4.230079,1.100206 0.799077,0.310882 4.005347,1.997661 4.005347,1.997661 0,0 -0.917883,3.278286 -0.917883,3.278286 z"
       id="path5176-2"
       sodipodi:nodetypes="ccccccccccc"
       inkscape:original-d="m 41.841337,72.797197 c 0,0 -2.614382,-1.679949 -3.922097,-2.520219 -1.580354,-0.444428 -3.160786,-0.888938 -4.741398,-1.333559 -2.343771,0.155437 -4.687923,0.310755 -7.032463,0.465955 -1.330353,0.830172 -3.991542,2.489982 -3.991542,2.489982 0,0 1.173837,-1.874033 1.76041,-2.81127 1.548026,-0.753346 3.095747,-1.506791 4.643259,-2.26038 2.066983,-0.286926 4.133682,-0.573975 6.200223,-0.861164 1.598681,0.622004 3.197056,1.243854 4.795221,1.86559 l 3.20627,1.686779 z"
       inkscape:path-effect="#path-effect5178-1" />
    <path
       style="fill:#808080;stroke:none;stroke-width:0.193245px;stroke-linecap:butt;stroke-linejoin:miter;stroke-opacity:1"
       d="m 45.122151,86.688614 c -1.547564,-0.141324 -3.094729,-0.282612 -4.672202,-0.185483 -1.577474,0.09713 -3.184552,0.432767 -4.991756,1.2107 -1.807203,0.777932 -3.814651,1.998312 -5.216925,3.28391 -1.402273,1.285598 -2.199091,2.636291 -2.995887,3.986948 0.08769,-1.102174 0.17538,-2.204345 0.731697,-3.447062 0.556316,-1.242718 1.581121,-2.625793 2.943853,-3.921898 1.362733,-1.296104 3.063251,-2.505185 4.766072,-3.203019 1.702821,-0.697835 3.407717,-0.884465 4.260047,-0.977767 0.85233,-0.0933 4.475195,-0.07796 4.475195,-0.07796 0,0 0.699906,3.331633 0.699906,3.331633 z"
       id="path5176-2-0"
       sodipodi:nodetypes="ccccccccccc"
       inkscape:original-d="m 45.122151,86.688614 c 0,0 -3.094727,-0.282635 -4.642692,-0.423973 -1.606972,0.335675 -3.21405,0.671314 -4.82134,1.006937 -2.007055,1.220308 -4.014503,2.440687 -6.02235,3.661141 -0.796571,1.35074 -2.390388,4.05197 -2.390388,4.05197 0,0 0.175653,-2.204323 0.263071,-3.306521 1.02512,-1.383127 2.049925,-2.766202 3.074477,-4.149308 1.700828,-1.209104 3.401346,-2.418185 5.10166,-3.627318 1.705238,-0.186635 3.410134,-0.373266 5.114791,-0.559901 l 3.622865,0.01534 z"
       inkscape:path-effect="#path-effect5178-1-7" />
    <path
       style="fill:#808080;stroke:none;stroke-width:0.193245px;stroke-linecap:butt;stroke-linejoin:miter;stroke-opacity:1"
       d="m 49.328999,97.118813 c -1.413874,0.644893 -2.827384,1.289619 -4.148955,2.1564 -1.321571,0.866777 -2.550546,1.955347 -3.733909,3.527237 -1.183362,1.57188 -2.321143,3.62727 -2.901091,5.43912 -0.579948,1.81185 -0.601882,3.3799 -0.623815,4.94792 -0.470546,-1.00053 -0.941089,-2.00105 -1.074431,-3.35607 -0.133342,-1.35501 0.0705,-3.06427 0.6109,-4.86563 0.540404,-1.80136 1.417274,-3.6947 2.549729,-5.145256 1.132455,-1.450558 2.520275,-2.458257 3.214088,-2.962037 0.693814,-0.50378 3.847218,-2.287437 3.847218,-2.287437 0,0 2.260266,2.545753 2.260266,2.545753 z"
       id="path5176-2-0-3"
       sodipodi:nodetypes="ccccccccccc"
       inkscape:original-d="m 49.328999,97.118813 c 0,0 -2.827393,1.289598 -4.241623,1.934678 -1.228862,1.088549 -2.457835,2.177119 -3.687001,3.265769 -1.137474,2.05514 -2.275254,4.11053 -3.413346,6.16618 -0.0217,1.56798 -0.0658,4.70405 -0.0658,4.70405 0,0 -0.940842,-2.00117 -1.411638,-3.00159 0.204088,-1.70946 0.407922,-3.41872 0.611526,-5.12788 0.877128,-1.89352 1.754,-3.78686 2.630669,-5.680144 1.388115,-1.007874 2.775934,-2.015574 4.163543,-3.023159 l 3.153404,-1.783657 z"
       inkscape:path-effect="#path-effect5178-1-7-9" />
    <path
       style="fill:#808080;stroke:none;stroke-width:0.264583px;stroke-linecap:butt;stroke-linejoin:miter;stroke-opacity:1"
       d="m 77.135505,33.447011 c 1.376188,-1.63046 2.752021,-3.260501 4.378184,-4.678697 1.626162,-1.418197 3.502058,-2.623784 5.982485,-3.574701 2.480427,-0.950917 5.565643,-1.647126 8.121925,-1.695681 2.556282,-0.04856 4.583221,0.550682 6.610121,1.149906 -1.1062,-1.029712 -2.21239,-2.059409 -3.905128,-2.780706 -1.692741,-0.721297 -3.971706,-1.13411 -6.499209,-1.134182 -2.527504,-7.2e-5 -5.303358,0.412515 -7.607947,1.344051 -2.30459,0.931535 -4.137736,2.381757 -5.054182,3.106767 -0.916446,0.725011 -4.43033,4.223046 -4.43033,4.223046 0,0 2.404081,4.040197 2.404081,4.040197 z"
       id="path5176-6"
       sodipodi:nodetypes="ccccccccccc"
       inkscape:original-d="m 77.135505,33.447011 c 0,0 2.751997,-3.260521 4.128563,-4.89138 1.875826,-1.205447 3.751722,-2.411034 5.627809,-3.616838 3.084768,-0.695902 6.169984,-1.392111 9.255656,-2.088627 2.026755,0.599525 6.080687,1.797672 6.080687,1.797672 0,0 -2.21264,-2.059138 -3.318604,-3.089135 -2.27932,-0.412565 -4.558285,-0.825379 -6.83703,-1.238465 -2.776174,0.41286 -5.552028,0.825448 -8.327729,1.237787 -1.833484,1.450545 -3.66663,2.900767 -5.499549,4.350754 l -3.513884,3.498035 z"
       inkscape:path-effect="#path-effect5178-0" />
    <path
       style="fill:#808080;stroke:none;stroke-width:0.193245px;stroke-linecap:butt;stroke-linejoin:miter;stroke-opacity:1"
       d="m 80.605024,69.849262 c 1.307366,-0.840073 2.614395,-1.67993 4.058415,-2.322317 1.444021,-0.642387 3.024453,-1.086898 4.986657,-1.231534 1.962204,-0.144637 4.306355,0.01068 6.143861,0.503338 1.837505,0.492659 3.16805,1.322676 4.498563,2.152673 -0.586802,-0.93709 -1.173606,-1.874182 -2.240971,-2.719499 -1.067365,-0.845317 -2.615085,-1.598761 -4.42237,-2.119 -1.807285,-0.520238 -3.873984,-0.807289 -5.706613,-0.639817 -1.832629,0.167471 -3.431003,0.789322 -4.230079,1.100204 -0.799076,0.310882 -4.005346,1.997662 -4.005346,1.997662 0,0 0.917883,3.27829 0.917883,3.27829 z"
       id="path5176-2-1"
       sodipodi:nodetypes="ccccccccccc"
       inkscape:original-d="m 80.605024,69.849262 c 0,0 2.614382,-1.67995 3.922097,-2.52022 1.580354,-0.44443 3.160786,-0.88894 4.741398,-1.33356 2.343771,0.15544 4.687923,0.31075 7.032463,0.46595 1.330353,0.83018 3.991538,2.48999 3.991538,2.48999 0,0 -1.173833,-1.87404 -1.760406,-2.81127 -1.548026,-0.75335 -3.095747,-1.50679 -4.643259,-2.26038 -2.066983,-0.28693 -4.133682,-0.57398 -6.200223,-0.86117 -1.598681,0.62201 -3.197056,1.24386 -4.795221,1.86559 l -3.20627,1.68678 z"
       inkscape:path-effect="#path-effect5178-1-6" />
    <path
       style="fill:#808080;stroke:none;stroke-width:0.193245px;stroke-linecap:butt;stroke-linejoin:miter;stroke-opacity:1"
       d="m 77.32421,83.740672 c 1.547564,-0.141323 3.094729,-0.28261 4.672203,-0.18548 1.577474,0.09713 3.184552,0.432769 4.991756,1.210702 1.807204,0.777934 3.814648,1.99831 5.216922,3.283909 1.402275,1.285599 2.199093,2.636292 2.995889,3.986949 -0.08769,-1.102173 -0.17538,-2.204342 -0.731697,-3.447062 -0.556317,-1.242719 -1.581119,-2.625791 -2.943851,-3.921897 -1.362733,-1.296105 -3.063255,-2.50519 -4.766074,-3.203024 -1.70282,-0.697834 -3.407716,-0.884463 -4.260047,-0.977765 -0.85233,-0.0933 -4.475195,-0.078 -4.475195,-0.078 0,0 -0.699906,3.33167 -0.699906,3.33167 z"
       id="path5176-2-0-8"
       sodipodi:nodetypes="ccccccccccc"
       inkscape:original-d="m 77.32421,83.740672 c 0,0 3.094727,-0.28263 4.642692,-0.42397 1.606972,0.33568 3.21405,0.67132 4.82134,1.00694 2.007055,1.22031 4.014503,2.44068 6.02235,3.66114 0.796571,1.35074 2.390388,4.05197 2.390388,4.05197 0,0 -0.175653,-2.20432 -0.263071,-3.30652 -1.02512,-1.38313 -2.049925,-2.7662 -3.074477,-4.14931 -1.700828,-1.2091 -3.401346,-2.41819 -5.10166,-3.62732 -1.705238,-0.18663 -3.410134,-0.37326 -5.114791,-0.5599 l -3.622865,0.0153 z"
       inkscape:path-effect="#path-effect5178-1-7-6" />
    <path
       style="fill:#808080;stroke:none;stroke-width:0.193245px;stroke-linecap:butt;stroke-linejoin:miter;stroke-opacity:1"
       d="m 73.117362,94.170872 c 1.413874,0.644893 2.827384,1.28962 4.148955,2.156402 1.321571,0.866782 2.550546,1.955349 3.733908,3.527232 1.183363,1.571884 2.321143,3.627274 2.901092,5.439124 0.579948,1.81185 0.601882,3.3799 0.623815,4.94792 0.470546,-1.00053 0.941089,-2.00105 1.074431,-3.35607 0.133342,-1.35501 -0.0705,-3.06427 -0.6109,-4.86563 -0.540404,-1.80136 -1.417275,-3.694695 -2.549731,-5.145252 -1.132456,-1.450558 -2.520275,-2.458258 -3.214088,-2.962037 -0.693812,-0.503779 -3.847216,-2.287439 -3.847216,-2.287439 0,0 -2.260266,2.54575 -2.260266,2.54575 z"
       id="path5176-2-0-3-7"
       sodipodi:nodetypes="ccccccccccc"
       inkscape:original-d="m 73.117362,94.170872 c 0,0 2.827393,1.2896 4.241623,1.93468 1.228862,1.08855 2.457835,2.17712 3.687001,3.26577 1.137474,2.055138 2.275254,4.110528 3.413346,6.166178 0.0217,1.56798 0.0658,4.70405 0.0658,4.70405 0,0 0.940842,-2.00117 1.411638,-3.00159 -0.204088,-1.70946 -0.407922,-3.41872 -0.611526,-5.12788 -0.877128,-1.89352 -1.754,-3.786858 -2.630669,-5.680138 -1.388115,-1.00788 -2.775934,-2.01558 -4.163543,-3.02316 l -3.153404,-1.78366 z"
       inkscape:path-effect="#path-effect5178-1-7-9-2" />
  </g>
  <g
     inkscape:groupmode="layer"
     id="layer2"
     inkscape:label="body"
     style="display:inline;opacity:1">
    <ellipse
       style="opacity:1;fill:#000000;fill-opacity:1;stroke:#ffff00;stroke-width:0.109809;stroke-linecap:butt;stroke-linejoin:miter;stroke-miterlimit:4;stroke-dasharray:none;stroke-dashoffset:0;stroke-opacity:1;paint-order:normal"
       id="path136"
       cx="60.812603"
       cy="66.252983"
       rx="24.292782"
       ry="45.548809" />
    <ellipse
       style="fill:#00a8a8;fill-opacity:1;stroke:#ffff00;stroke-width:0.098898;stroke-linecap:butt;stroke-linejoin:miter;stroke-miterlimit:4;stroke-dasharray:none;stroke-dashoffset:0;stroke-opacity:1;paint-order:normal"
       id="path136-3"
       cx="60.917988"
       cy="66.398354"
       rx="21.524233"
       ry="41.698929" />
  </g>
  <g
     inkscape:groupmode="layer"
     id="layer3"
     inkscape:label="face"
     style="display:inline;opacity:1">
    <circle
       style="font-variation-settings:normal;opacity:1;fill:#ffffff;fill-opacity:1;stroke:#800080;stroke-width:1.007;stroke-linecap:butt;stroke-linejoin:miter;stroke-miterlimit:10;stroke-dasharray:none;stroke-dashoffset:0;stroke-opacity:1;paint-order:normal;stop-color:#000000;stop-opacity:1"
       id="path304"
       cx="47.044361"
       cy="44.862648"
       r="9.0837975" />
    <circle
       style="fill:#000000;fill-opacity:1;stroke:#000000;stroke-width:1.131;stroke-linecap:butt;stroke-linejoin:miter;stroke-miterlimit:10;stroke-dasharray:none;stroke-dashoffset:0;stroke-opacity:1;paint-order:normal"
       id="path304-7"
       cx="47.012081"
       cy="44.917557"
       r="1.967899" />
    <circle
       style="font-variation-settings:normal;fill:#ffffff;fill-opacity:1;stroke:#800080;stroke-width:1.007;stroke-linecap:butt;stroke-linejoin:miter;stroke-miterlimit:10;stroke-dasharray:none;stroke-dashoffset:0;stroke-opacity:1;paint-order:normal;stop-color:#000000"
       id="path304-5"
       cx="73.784088"
       cy="44.968563"
       r="9.0837975" />
    <circle
       style="fill:#000000;fill-opacity:1;stroke:#000000;stroke-width:1.131;stroke-linecap:butt;stroke-linejoin:miter;stroke-miterlimit:10;stroke-dasharray:none;stroke-dashoffset:0;stroke-opacity:1;paint-order:normal"
       id="path304-7-3"
       cx="73.751808"
       cy="45.023472"
       r="1.967899" />
    <path
       style="fill:#000000;stroke:#000000;stroke-width:0.264583px;stroke-linecap:butt;stroke-linejoin:miter;stroke-opacity:1"
       d="m 54.46518,58.74505 -1.914483,-0.108719 c 0,0 0.751621,2.358212 1.478874,3.324117 0.772368,1.025825 1.725192,1.885043 2.903332,2.395783 1.303127,0.564923 2.790717,0.842095 4.203571,0.696767 1.168497,-0.120193 2.300409,-0.633506 3.286447,-1.271911 0.913346,-0.591341 1.728703,-1.382537 2.320817,-2.295382 0.55891,-0.861656 1.085231,-2.883707 1.085231,-2.883707 l -2.98999,0.09836 c 0,0 -0.345803,1.964892 -1.070498,2.721575 -0.659037,0.688127 -1.740811,1.370672 -2.683373,1.510048 -1.18203,0.174786 -2.468136,0.08026 -3.602994,-0.293702 C 56.61036,62.35102 55.704948,61.570859 55.150661,60.839259 54.689534,60.23062 54.46518,58.74505 54.46518,58.74505 Z"
       id="path12879"
       sodipodi:nodetypes="ccsssssccssssc" />
  </g>
</svg>
